<svg xmlns="http://www.w3.org/2000/svg" xmlns:xlink="http://www.w3.org/1999/xlink" width="500" zoomAndPan="magnify" viewBox="0 0 375 374.999991" height="500" preserveAspectRatio="xMidYMid meet" version="1.0"><path fill="#000000" d="M 347.804688 21.078125 C 347.5 21.117188 345.714844 21.363281 342.667969 21.863281 C 331.523438 22.828125 305.199219 25.304688 276.621094 29.496094 C 225.273438 37.03125 191.253906 46.332031 175.496094 57.136719 C 170.140625 60.808594 165.34375 64.734375 161.03125 68.757812 C 121.726562 79.101562 94.191406 97.835938 79.191406 124.476562 C 72.777344 135.875 69.429688 147.375 67.875 157.886719 C 25.851562 183.5 18.226562 218.449219 19.367188 243.574219 C 20.296875 264.074219 27.054688 281.074219 30.621094 288.730469 C 24.15625 309.3125 19.105469 330.371094 15.53125 351.761719 L 31.496094 354.421875 C 34.652344 335.484375 39.023438 316.8125 44.539062 298.53125 C 51.417969 299.957031 61.675781 301.519531 73.570312 301.519531 C 74.484375 301.519531 75.414062 301.511719 76.351562 301.492188 C 101.621094 300.972656 123.4375 293.625 141.191406 279.667969 C 159.273438 265.453125 168.902344 247.597656 174.023438 233.179688 C 191.449219 230.636719 211.191406 224 229.75 209.296875 C 251.839844 191.789062 263.214844 170.167969 268.90625 154.894531 C 284.066406 148.921875 297.839844 140.398438 310.101562 129.359375 C 349.617188 93.777344 356.039062 47.675781 356.96875 29.503906 L 357.46875 19.773438 L 347.816406 21.070312 Z M 184.648438 70.476562 C 193.96875 64.082031 211.589844 58.566406 232.253906 53.957031 C 209.507812 63.484375 184.832031 75.957031 161.558594 91.976562 C 167.488281 84.601562 175.074219 77.039062 184.648438 70.476562 Z M 93.390625 132.242188 C 103 115.289062 119.003906 102 141.109375 92.546875 C 133.261719 104.566406 129.351562 114.816406 127.960938 118.917969 C 126.875 119.9375 125.792969 120.960938 124.722656 122 C 107.382812 138.90625 93.890625 156.859375 82.964844 174.277344 C 82.894531 162.339844 85.003906 147.03125 93.382812 132.242188 Z M 35.527344 242.839844 C 34.332031 216.472656 44.855469 194.769531 66.816406 178.140625 C 67.175781 187.054688 68.511719 194.039062 69.414062 197.835938 C 63.160156 209.628906 57.910156 220.777344 53.234375 230.726562 C 48.035156 241.785156 43.292969 253.046875 38.996094 264.488281 C 37.292969 258.191406 35.890625 250.8125 35.535156 242.839844 Z M 299.261719 117.335938 C 259.984375 152.703125 211.375 150.308594 192.554688 147.707031 C 191.933594 135.351562 181.683594 125.488281 169.175781 125.488281 C 156.667969 125.488281 145.773438 135.992188 145.773438 148.894531 C 145.773438 161.796875 156.269531 172.300781 169.175781 172.300781 C 176.640625 172.300781 183.289062 168.789062 187.582031 163.332031 C 195.847656 164.652344 210.578125 166.179688 228.410156 164.449219 C 235.304688 163.78125 241.996094 162.699219 248.476562 161.207031 C 242.671875 172.589844 233.632812 185.570312 219.6875 196.621094 C 189.65625 220.421875 156.050781 219.757812 138.738281 217.261719 C 137.84375 205.167969 127.71875 195.601562 115.402344 195.601562 C 103.082031 195.601562 91.996094 206.097656 91.996094 219.007812 C 91.996094 231.914062 102.492188 242.410156 115.402344 242.410156 C 123.105469 242.410156 129.957031 238.667969 134.21875 232.898438 C 139.722656 233.773438 146.898438 234.539062 155.175781 234.539062 C 155.472656 234.539062 155.777344 234.539062 156.070312 234.539062 C 151.316406 245.253906 143.625 257.179688 131.179688 266.957031 C 102.441406 289.546875 66.144531 286.203125 49.519531 283.03125 C 54.800781 267.570312 60.914062 252.402344 67.875 237.613281 C 81.632812 208.339844 100.480469 168.25 136.027344 133.585938 C 177.4375 93.207031 233.246094 69.148438 272.769531 56.082031 C 301.878906 46.457031 326.683594 41.210938 339.851562 38.796875 C 337.222656 58.375 328.378906 91.125 299.261719 117.335938 Z M 176.402344 148.894531 C 176.402344 152.878906 173.160156 156.121094 169.175781 156.121094 C 165.195312 156.121094 161.953125 152.878906 161.953125 148.894531 C 161.953125 144.914062 165.195312 141.671875 169.175781 141.671875 C 173.160156 141.671875 176.402344 144.914062 176.402344 148.894531 Z M 122.625 219.007812 C 122.625 222.988281 119.382812 226.230469 115.402344 226.230469 C 111.417969 226.230469 108.175781 222.988281 108.175781 219.007812 C 108.175781 215.023438 111.417969 211.78125 115.402344 211.78125 C 119.382812 211.78125 122.625 215.023438 122.625 219.007812 Z M 122.625 219.007812 " fill-opacity="1" fill-rule="nonzero"/></svg>