<svg xmlns="http://www.w3.org/2000/svg" xmlns:xlink="http://www.w3.org/1999/xlink" width="500" zoomAndPan="magnify" viewBox="0 0 375 374.999991" height="500" preserveAspectRatio="xMidYMid meet" version="1.0"><path fill="#d9d9d9" d="M 347.9375 21.082031 C 347.632812 21.121094 345.847656 21.367188 342.800781 21.867188 C 331.652344 22.832031 305.316406 25.308594 276.730469 29.503906 C 225.359375 37.042969 191.324219 46.347656 175.558594 57.15625 C 170.203125 60.828125 165.40625 64.757812 161.089844 68.78125 C 121.769531 79.128906 94.222656 97.871094 79.21875 124.523438 C 72.800781 135.921875 69.449219 147.429688 67.894531 157.945312 C 25.859375 183.570312 18.230469 218.53125 19.371094 243.664062 C 20.300781 264.171875 27.0625 281.183594 30.628906 288.839844 C 24.164062 309.433594 19.109375 330.496094 15.535156 351.898438 L 31.503906 354.558594 C 34.664062 335.613281 39.035156 316.9375 44.550781 298.644531 C 51.433594 300.074219 61.695312 301.636719 73.597656 301.636719 C 74.511719 301.636719 75.441406 301.628906 76.375 301.609375 C 101.65625 301.085938 123.480469 293.738281 141.242188 279.777344 C 159.332031 265.550781 168.964844 247.691406 174.089844 233.269531 C 191.523438 230.722656 211.269531 224.085938 229.835938 209.375 C 251.933594 191.859375 263.316406 170.234375 269.007812 154.953125 C 284.175781 148.976562 297.953125 140.449219 310.222656 129.40625 C 349.753906 93.808594 356.179688 47.691406 357.109375 29.511719 L 357.605469 19.777344 L 347.953125 21.074219 Z M 184.714844 70.5 C 194.042969 64.101562 211.671875 58.585938 232.339844 53.976562 C 209.589844 63.503906 184.898438 75.980469 161.617188 92.007812 C 167.550781 84.632812 175.136719 77.066406 184.714844 70.5 Z M 93.421875 132.292969 C 103.035156 115.332031 119.046875 102.035156 141.160156 92.578125 C 133.3125 104.605469 129.398438 114.859375 128.003906 118.960938 C 126.921875 119.984375 125.839844 121.003906 124.769531 122.042969 C 107.421875 138.957031 93.921875 156.917969 82.992188 174.34375 C 82.921875 162.398438 85.03125 147.085938 93.414062 132.292969 Z M 35.535156 242.933594 C 34.339844 216.554688 44.867188 194.84375 66.839844 178.207031 C 67.199219 187.125 68.535156 194.113281 69.4375 197.914062 C 63.179688 209.707031 57.929688 220.863281 53.25 230.8125 C 48.050781 241.878906 43.304688 253.144531 39.003906 264.589844 C 37.300781 258.289062 35.902344 250.90625 35.542969 242.933594 Z M 299.375 117.378906 C 260.085938 152.757812 211.453125 150.363281 192.625 147.761719 C 192.007812 135.402344 181.753906 125.535156 169.242188 125.535156 C 156.726562 125.535156 145.824219 136.042969 145.824219 148.949219 C 145.824219 161.859375 156.324219 172.363281 169.242188 172.363281 C 176.707031 172.363281 183.359375 168.851562 187.652344 163.390625 C 195.921875 164.714844 210.65625 166.242188 228.5 164.511719 C 235.394531 163.84375 242.089844 162.757812 248.570312 161.265625 C 242.765625 172.652344 233.71875 185.636719 219.773438 196.695312 C 189.726562 220.503906 156.109375 219.84375 138.789062 217.34375 C 137.894531 205.246094 127.765625 195.675781 115.441406 195.675781 C 103.121094 195.675781 92.027344 206.175781 92.027344 219.089844 C 92.027344 232.003906 102.527344 242.503906 115.441406 242.503906 C 123.148438 242.503906 130.003906 238.757812 134.269531 232.988281 C 139.773438 233.863281 146.953125 234.628906 155.234375 234.628906 C 155.53125 234.628906 155.832031 234.628906 156.128906 234.628906 C 151.371094 245.347656 143.679688 257.277344 131.230469 267.058594 C 102.480469 289.65625 66.164062 286.3125 49.535156 283.140625 C 54.820312 267.671875 60.933594 252.496094 67.894531 237.703125 C 81.660156 208.417969 100.515625 168.3125 136.078125 133.636719 C 177.503906 93.238281 233.332031 69.167969 272.871094 56.101562 C 301.996094 46.472656 326.808594 41.222656 339.984375 38.808594 C 337.351562 58.394531 328.507812 91.15625 299.375 117.378906 Z M 176.46875 148.949219 C 176.46875 152.933594 173.222656 156.179688 169.242188 156.179688 C 165.257812 156.179688 162.011719 152.933594 162.011719 148.949219 C 162.011719 144.96875 165.257812 141.722656 169.242188 141.722656 C 173.222656 141.722656 176.46875 144.96875 176.46875 148.949219 Z M 122.671875 219.089844 C 122.671875 223.074219 119.425781 226.316406 115.441406 226.316406 C 111.460938 226.316406 108.214844 223.074219 108.214844 219.089844 C 108.214844 215.105469 111.460938 211.859375 115.441406 211.859375 C 119.425781 211.859375 122.671875 215.105469 122.671875 219.089844 Z M 122.671875 219.089844 " fill-opacity="1" fill-rule="nonzero"/></svg>