<svg xmlns="http://www.w3.org/2000/svg" xmlns:xlink="http://www.w3.org/1999/xlink" width="704" zoomAndPan="magnify" viewBox="0 0 528 128.249994" height="171" preserveAspectRatio="xMidYMid meet" version="1.0"><defs><g/><clipPath id="e5376aa6fd"><path d="M 9 2.25 L 134.796875 2.25 L 134.796875 126 L 9 126 Z M 9 2.25 " clip-rule="nonzero"/></clipPath></defs><g clip-path="url(#e5376aa6fd)"><path fill="#1b86a8" d="M 131.3125 3.152344 C 131.203125 3.164062 130.554688 3.253906 129.445312 3.4375 C 119.902344 4.246094 80.054688 8.0625 67.972656 16.351562 C 65.972656 17.722656 64.183594 19.195312 62.582031 20.703125 C 48.167969 24.464844 38.085938 31.285156 32.625 40.988281 C 30.234375 45.234375 29.019531 49.523438 28.476562 53.417969 C 13.007812 62.710938 10.203125 75.449219 10.617188 84.589844 C 10.96875 92.296875 13.578125 98.628906 14.828125 101.253906 C 12.40625 108.910156 10.519531 116.746094 9.191406 124.707031 L 13.65625 125.453125 C 14.863281 118.203125 16.550781 111.066406 18.6875 104.074219 C 21.171875 104.625 25.1875 105.304688 29.914062 105.304688 C 30.246094 105.304688 30.585938 105.300781 30.925781 105.292969 C 40.097656 105.105469 48.007812 102.445312 54.441406 97.386719 C 61.207031 92.070312 64.707031 85.339844 66.511719 80.027344 C 72.960938 79.21875 80.007812 76.96875 86.503906 71.96875 C 94.707031 65.65625 98.765625 57.550781 100.753906 51.589844 C 106.6875 49.402344 112.054688 46.164062 116.796875 41.890625 C 131.191406 28.929688 133.535156 12.128906 133.871094 5.507812 L 134.011719 2.785156 L 131.308594 3.148438 Z M 70.535156 20.082031 C 74.699219 17.226562 83.613281 14.542969 96.554688 12.21875 C 85.1875 16.363281 71.460938 22.65625 59.222656 31.808594 C 61.679688 28.019531 65.324219 23.660156 70.535156 20.082031 Z M 36.597656 43.15625 C 40.542969 36.179688 47.332031 30.851562 56.824219 27.261719 C 52.917969 32.644531 51.144531 37.441406 50.640625 38.972656 C 50.199219 39.390625 49.753906 39.804688 49.320312 40.230469 C 42.289062 47.085938 36.976562 54.417969 32.757812 61.4375 C 32.417969 56.714844 32.835938 49.796875 36.59375 43.152344 Z M 15.132812 84.234375 C 14.710938 73.863281 19.074219 65.410156 28.109375 59.050781 C 28.136719 63.179688 28.789062 66.375 29.148438 67.828125 C 26.789062 72.257812 24.8125 76.453125 23.058594 80.1875 C 20.839844 84.90625 18.847656 89.726562 17.070312 94.628906 C 16.160156 91.832031 15.292969 88.214844 15.132812 84.234375 Z M 126.808594 18.421875 C 124.148438 26.367188 119.761719 33.136719 113.773438 38.527344 C 99.308594 51.550781 81.476562 50.925781 74.152344 49.976562 C 73.550781 47.066406 70.964844 44.871094 67.875 44.871094 C 64.339844 44.871094 61.460938 47.746094 61.460938 51.28125 C 61.460938 54.816406 64.339844 57.695312 67.875 57.695312 C 70.253906 57.695312 72.335938 56.386719 73.441406 54.457031 C 76.578125 54.871094 81.382812 55.226562 87.042969 54.671875 C 89.886719 54.394531 92.636719 53.925781 95.285156 53.269531 C 93.226562 58.109375 89.710938 63.792969 83.746094 68.382812 C 69.953125 78.992188 53.25 75.734375 47.609375 74.1875 C 47.363281 70.875 44.59375 68.253906 41.21875 68.253906 C 37.84375 68.253906 34.804688 71.132812 34.804688 74.667969 C 34.804688 78.203125 37.683594 81.078125 41.21875 81.078125 C 43.304688 81.078125 45.160156 80.074219 46.332031 78.527344 C 49.082031 79.28125 54.21875 80.402344 60.429688 80.402344 C 60.800781 80.402344 61.175781 80.398438 61.554688 80.390625 C 59.816406 84.722656 56.816406 89.765625 51.644531 93.832031 C 40.304688 102.746094 25.882812 100.964844 20.078125 99.746094 C 22.097656 93.734375 24.453125 87.847656 27.152344 82.113281 C 32.257812 71.25 39.25 56.367188 52.476562 43.476562 C 67.882812 28.453125 88.617188 19.515625 103.296875 14.664062 C 114.835938 10.851562 124.550781 8.890625 129.117188 8.089844 C 128.796875 10.886719 128.132812 14.449219 126.804688 18.421875 Z M 69.757812 51.28125 C 69.757812 52.324219 68.914062 53.167969 67.875 53.167969 C 66.832031 53.167969 65.988281 52.324219 65.988281 51.28125 C 65.988281 50.242188 66.832031 49.394531 67.875 49.394531 C 68.914062 49.394531 69.757812 50.242188 69.757812 51.28125 Z M 43.105469 74.667969 C 43.105469 75.707031 42.261719 76.550781 41.222656 76.550781 C 40.179688 76.550781 39.335938 75.707031 39.335938 74.667969 C 39.335938 73.625 40.179688 72.78125 41.222656 72.78125 C 42.261719 72.78125 43.105469 73.625 43.105469 74.667969 Z M 43.105469 74.667969 " fill-opacity="1" fill-rule="nonzero"/></g><g fill="#1b86a8" fill-opacity="1"><g transform="translate(134.516579, 124.306303)"><g><path d="M 8.828125 -5.296875 C 12.578125 -5.410156 15.253906 -6.269531 16.859375 -7.875 C 18.472656 -9.476562 19.382812 -11.378906 19.59375 -13.578125 C 19.8125 -15.773438 19.921875 -19.601562 19.921875 -25.0625 L 19.921875 -94.453125 C 19.921875 -98.953125 20.082031 -102.804688 20.40625 -106.015625 L 8.828125 -105.375 L 8.828125 -112.453125 L 46.75 -112.609375 C 66.882812 -112.710938 82.835938 -108 94.609375 -98.46875 C 106.390625 -88.9375 112.28125 -74.800781 112.28125 -56.0625 C 112.28125 -46 109.925781 -36.679688 105.21875 -28.109375 C 100.507812 -19.546875 93.546875 -12.71875 84.328125 -7.625 C 75.117188 -2.539062 64.035156 0 51.078125 0 L 8.828125 0 Z M 50.609375 -6.109375 C 59.597656 -6.109375 67.570312 -8.300781 74.53125 -12.6875 C 81.5 -17.082031 86.910156 -23.132812 90.765625 -30.84375 C 94.617188 -38.550781 96.546875 -47.171875 96.546875 -56.703125 C 96.546875 -72.335938 92.257812 -84.570312 83.6875 -93.40625 C 75.125 -102.25 62.222656 -106.671875 44.984375 -106.671875 C 41.234375 -106.671875 38.550781 -105.921875 36.9375 -104.421875 C 35.332031 -102.921875 34.421875 -101.070312 34.203125 -98.875 C 33.992188 -96.675781 33.890625 -92.847656 33.890625 -87.390625 L 33.890625 -18.953125 C 33.890625 -13.390625 33.726562 -9.210938 33.40625 -6.421875 C 37.15625 -6.210938 42.890625 -6.109375 50.609375 -6.109375 Z M 50.609375 -6.109375 "/></g></g></g><g fill="#1b86a8" fill-opacity="1"><g transform="translate(254.189349, 124.306303)"><g><path d="M 7.0625 -4.8125 C 10.175781 -4.8125 12.398438 -5.585938 13.734375 -7.140625 C 15.078125 -8.703125 15.878906 -10.6875 16.140625 -13.09375 C 16.410156 -15.5 16.546875 -19.273438 16.546875 -24.421875 L 16.546875 -61.046875 C 16.546875 -65.546875 16.757812 -69.023438 17.1875 -71.484375 L 5.78125 -71 L 5.78125 -77.59375 L 10.765625 -77.59375 C 14.835938 -77.59375 17.78125 -77.9375 19.59375 -78.625 C 21.414062 -79.320312 23.128906 -80.421875 24.734375 -81.921875 L 29.390625 -81.921875 C 29.828125 -77.742188 30.097656 -72.441406 30.203125 -66.015625 C 32.878906 -70.410156 36.707031 -74.320312 41.6875 -77.75 C 46.664062 -81.175781 51.832031 -82.890625 57.1875 -82.890625 C 60.394531 -82.890625 63.070312 -82.03125 65.21875 -80.3125 C 67.363281 -78.601562 68.4375 -76.085938 68.4375 -72.765625 C 68.4375 -71.054688 67.765625 -69.34375 66.421875 -67.625 C 65.085938 -65.914062 63.1875 -65.0625 60.71875 -65.0625 C 58.363281 -65.0625 56.4375 -65.941406 54.9375 -67.703125 C 53.4375 -69.472656 52.847656 -71.59375 53.171875 -74.0625 C 49.097656 -74.164062 45 -72.609375 40.875 -69.390625 C 36.757812 -66.179688 33.253906 -61.898438 30.359375 -56.546875 L 30.515625 -17.03125 C 30.515625 -12.207031 30.300781 -8.566406 29.875 -6.109375 L 40 -6.59375 L 40 0 L 7.0625 0 Z M 7.0625 -4.8125 "/></g></g></g><g fill="#1b86a8" fill-opacity="1"><g transform="translate(323.744122, 124.306303)"><g><path d="M 29.5625 2.5625 C 21.738281 2.5625 15.765625 0.796875 11.640625 -2.734375 C 7.523438 -6.265625 5.46875 -10.867188 5.46875 -16.546875 C 5.46875 -22.753906 7.957031 -28 12.9375 -32.28125 C 17.914062 -36.570312 24.175781 -39.757812 31.71875 -41.84375 C 39.269531 -43.9375 46.847656 -44.925781 54.453125 -44.8125 L 54.453125 -54.78125 C 54.453125 -61.738281 53.4375 -67.171875 51.40625 -71.078125 C 49.375 -74.992188 45.035156 -76.953125 38.390625 -76.953125 C 35.066406 -76.953125 31.90625 -76.253906 28.90625 -74.859375 C 25.914062 -73.460938 23.722656 -71.375 22.328125 -68.59375 C 23.722656 -67.09375 24.421875 -65.054688 24.421875 -62.484375 C 24.421875 -60.878906 23.832031 -59.351562 22.65625 -57.90625 C 21.476562 -56.46875 19.765625 -55.75 17.515625 -55.75 C 15.265625 -55.75 13.492188 -56.46875 12.203125 -57.90625 C 10.921875 -59.351562 10.28125 -61.253906 10.28125 -63.609375 C 10.28125 -67.148438 11.644531 -70.390625 14.375 -73.328125 C 17.101562 -76.273438 20.90625 -78.601562 25.78125 -80.3125 C 30.65625 -82.03125 36.09375 -82.890625 42.09375 -82.890625 C 51.082031 -82.890625 57.71875 -80.503906 62 -75.734375 C 66.289062 -70.972656 68.378906 -63.453125 68.265625 -53.171875 L 68.109375 -17.03125 C 68.109375 -13.601562 67.894531 -9.960938 67.46875 -6.109375 L 78.875 -6.75 L 78.875 0 L 55.90625 0 C 55.582031 -1.601562 55.207031 -4.65625 54.78125 -9.15625 C 46.957031 -1.34375 38.550781 2.5625 29.5625 2.5625 Z M 33.25 -6.59375 C 37.320312 -6.59375 41.015625 -7.367188 44.328125 -8.921875 C 47.648438 -10.472656 51.023438 -12.851562 54.453125 -16.0625 C 54.347656 -17.664062 54.296875 -20.394531 54.296875 -24.25 L 54.453125 -39.359375 C 45.671875 -39.035156 37.851562 -37.238281 31 -33.96875 C 24.144531 -30.707031 20.71875 -25.703125 20.71875 -18.953125 C 20.71875 -14.992188 21.894531 -11.941406 24.25 -9.796875 C 26.613281 -7.660156 29.613281 -6.59375 33.25 -6.59375 Z M 33.25 -6.59375 "/></g></g></g><g fill="#1b86a8" fill-opacity="1"><g transform="translate(406.631569, 124.306303)"><g><path d="M 7.875 -4.8125 C 10.976562 -4.8125 13.195312 -5.585938 14.53125 -7.140625 C 15.875 -8.703125 16.675781 -10.6875 16.9375 -13.09375 C 17.207031 -15.5 17.34375 -19.273438 17.34375 -24.421875 L 17.1875 -73.40625 L 4.015625 -73.09375 L 4.015625 -80.328125 L 17.1875 -80.328125 L 17.1875 -83.6875 C 17.1875 -96.113281 19.460938 -105.617188 24.015625 -112.203125 C 28.566406 -118.796875 35.929688 -122.09375 46.109375 -122.09375 C 50.171875 -122.09375 54.050781 -121.070312 57.75 -119.03125 C 61.445312 -117 63.296875 -114.054688 63.296875 -110.203125 C 63.296875 -108.054688 62.675781 -106.3125 61.4375 -104.96875 C 60.207031 -103.632812 58.523438 -102.96875 56.390625 -102.96875 C 54.242188 -102.96875 52.609375 -103.691406 51.484375 -105.140625 C 50.359375 -106.585938 49.796875 -108.0625 49.796875 -109.5625 C 49.796875 -111.0625 50.066406 -112.398438 50.609375 -113.578125 C 49.859375 -114.429688 48.835938 -115.097656 47.546875 -115.578125 C 46.265625 -116.054688 44.976562 -116.296875 43.6875 -116.296875 C 39.082031 -116.296875 35.816406 -114.445312 33.890625 -110.75 C 31.960938 -107.0625 31 -102.539062 31 -97.1875 L 31 -80.328125 L 52.6875 -80.328125 L 52.6875 -74.0625 L 31 -73.578125 L 31.171875 -17.03125 C 31.171875 -12.207031 30.953125 -8.566406 30.515625 -6.109375 L 40.640625 -6.59375 L 40.640625 0 L 7.875 0 Z M 7.875 -4.8125 "/></g></g></g><g fill="#1b86a8" fill-opacity="1"><g transform="translate(460.926059, 124.306303)"><g><path d="M 37.265625 2.5625 C 22.597656 2.5625 15.316406 -7.285156 15.421875 -26.984375 L 15.75 -73.578125 L 3.375 -73.40625 L 3.375 -80.328125 C 8.507812 -80.429688 12.867188 -82.757812 16.453125 -87.3125 C 20.046875 -91.863281 22.703125 -97.03125 24.421875 -102.8125 L 29.875 -102.8125 L 29.875 -80.328125 L 56.859375 -80.328125 L 56.859375 -74.0625 L 29.875 -73.734375 C 29.769531 -57.347656 29.691406 -45.992188 29.640625 -39.671875 C 29.585938 -33.359375 29.5625 -29.828125 29.5625 -29.078125 C 29.5625 -21.472656 30.46875 -15.820312 32.28125 -12.125 C 34.101562 -8.4375 37.265625 -6.59375 41.765625 -6.59375 C 44.546875 -6.59375 47.300781 -7.445312 50.03125 -9.15625 C 52.769531 -10.875 55.15625 -13.226562 57.1875 -16.21875 L 61.53125 -12.6875 C 57.351562 -6.476562 53.226562 -2.382812 49.15625 -0.40625 C 45.082031 1.570312 41.117188 2.5625 37.265625 2.5625 Z M 37.265625 2.5625 "/></g></g></g></svg>